# xmcd
#
# Track frame offsets:
# 150
# 70286
# 124553
# 218638
# 264663
#
# Disc length: 4154 seconds
#
# Revision: 0
# Processed by: cddbd v1.5.2PL0 Copyright (c) Steve Scherf et al.
# Submitted via: Audion 3.0.2 (http://www.panic.com/audion/)
#
DISCID=45103805
DTITLE=Wayne Krantz Chris' Jazz Cafe Philly 8.2.08 - Wayne Krantz Chris' Jazz Cafe Philly 8.2.08
DYEAR=1900
DGENRE=
TTITLE0=1
TTITLE1=2
TTITLE2=3
TTITLE3=4
TTITLE4=5
EXTD=
EXTT0=
EXTT1=
EXTT2=
EXTT3=
EXTT4=
PLAYORDER=
